# 3ds Max Wavefront OBJ Exporter v0.97b - (c)2007 guruware
# File Created: 13.08.2017 23:21:41

#
# object Cylinder001
#

v  0.938943 -1.765895 13.333335
v  -1.389317 -1.438680 13.333335
v  -0.483844 -1.940592 5.333333
v  -1.797588 0.876742 13.333335
v  0.278346 1.980536 13.333335
v  -0.749213 1.854368 5.333333
v  0.250868 -2.386853 0.000000
v  2.347554 -0.498988 0.000000
v  1.696096 -1.059838 5.333333
v  -1.605914 1.783548 -0.000000
v  -2.192509 -0.976168 -0.000000
v  -1.995128 -0.139513 5.333333
v  1.532089 1.285575 5.333333
v  1.969615 0.347296 13.333335
v  1.200000 2.078461 0.000000
v  0.306181 2.178590 16.000000
v  -1.977347 0.964416 16.000000
v  1.032838 -1.942484 16.000000
v  2.166577 0.382026 16.000000
v  -1.528248 -1.582548 16.000000
# 20 vertices

vn 0.469350 -0.882888 -0.014813
vn -0.694639 -0.719206 -0.014813
vn -0.242506 -0.969156 0.043907
vn -0.898660 0.438395 -0.014813
vn 0.139237 0.990148 -0.014813
vn -0.373464 0.926605 0.043907
vn 0.105577 -0.994092 0.025195
vn 0.978063 -0.206782 0.025195
vn 0.846784 -0.530122 0.043907
vn -0.669726 0.742181 0.025195
vn -0.912813 -0.407601 0.025195
vn -0.996660 -0.068849 0.043907
vn 0.765847 0.641522 0.043907
vn 0.984714 0.173551 -0.014813
vn 0.498899 0.866294 0.025195
vn 0.138783 0.987495 -0.074790
vn -0.896277 0.437143 -0.074790
vn 0.468157 -0.880475 -0.074790
vn 0.982050 0.173162 -0.074790
vn -0.692713 -0.717325 -0.074790
# 20 vertex normals

vt 0.400000 0.800000 0.410472
vt 0.300000 0.800000 0.435699
vt 0.300000 0.300000 0.420827
vt 0.200000 0.800000 0.465554
vt 0.100000 0.800000 0.458756
vt 0.100000 0.300000 0.466033
vt 0.300000 0.000000 0.501456
vt 0.400000 0.000000 0.507425
vt 0.400000 0.300000 0.413425
vt 0.100000 0.000000 0.555381
vt 0.200000 0.000000 0.535242
vt 0.200000 0.300000 0.456590
vt 0.500000 0.300000 0.441932
vt 0.500000 0.800000 0.428324
vt 0.000000 0.300000 0.441932
vt 0.000000 0.800000 0.428324
vt 0.000000 0.000000 0.538215
vt 0.500000 0.000000 0.538215
vt 0.100000 1.000000 0.502530
vt 0.200000 1.000000 0.509543
vt 0.400000 1.000000 0.454331
vt 0.500000 1.000000 0.472299
vt 0.300000 1.000000 0.479542
vt 0.000000 1.000000 0.472299
# 24 texture coords

g Cylinder001
s 8
f 1/1/1 2/2/2 3/3/3 
f 4/4/4 5/5/5 6/6/6 
f 7/7/7 8/8/8 9/9/9 
f 10/10/10 11/11/11 12/12/12 
f 9/9/9 13/13/13 14/14/14 
f 12/12/12 3/3/3 2/2/2 
f 13/15/13 6/6/6 5/5/5 
f 5/5/5 14/16/14 13/15/13 
f 2/2/2 4/4/4 12/12/12 
f 6/6/6 12/12/12 4/4/4 
f 3/3/3 9/9/9 1/1/1 
f 14/14/14 1/1/1 9/9/9 
f 13/13/13 9/9/9 8/8/8 
f 6/6/6 13/15/13 15/17/15 
f 3/3/3 12/12/12 11/11/11 
f 9/9/9 3/3/3 7/7/7 
f 12/12/12 6/6/6 10/10/10 
f 15/17/15 10/10/10 6/6/6 
f 11/11/11 7/7/7 3/3/3 
f 8/8/8 15/18/15 13/13/13 
f 14/16/14 5/5/5 16/19/16 
f 17/20/17 16/19/16 5/5/5 
f 2/2/2 1/1/1 18/21/18 
f 19/22/19 18/21/18 1/1/1 
f 4/4/4 2/2/2 20/23/20 
f 18/21/18 20/23/20 2/2/2 
f 1/1/1 14/14/14 19/22/19 
f 16/19/16 19/24/19 14/16/14 
f 20/23/20 17/20/17 4/4/4 
f 5/5/5 4/4/4 17/20/17 
# 30 faces

