# 3ds Max Wavefront OBJ Exporter v0.97b - (c)2007 guruware
# File Created: 13.08.2017 23:25:07

#
# object Plane002
#

v  6.009369 8.241272 0.000000
v  -9.990631 8.241275 0.000000
v  -9.990631 8.098131 2.285714
v  6.009369 8.098128 2.285714
v  -9.990631 7.571144 4.571429
v  6.009369 7.571140 4.571429
v  -9.990631 6.830055 6.857143
v  6.009369 6.830053 6.857143
v  -9.990631 6.327403 9.142858
v  6.009369 6.327400 9.142858
v  -9.990631 6.231616 11.428573
v  6.009369 6.231613 11.428573
v  -9.990631 6.782147 13.714286
v  6.009369 6.782145 13.714286
v  -9.990631 8.241275 16.000000
v  6.009369 8.241273 16.000000
v  -10.900939 7.568614 13.774219
v  -10.950149 8.508967 15.750501
v  -6.425680 8.688121 15.435877
v  4.212789 8.773797 15.771649
v  4.386712 7.599199 13.848050
v  -0.141693 7.320586 13.714511
v  -6.370472 7.292605 13.750099
v  -0.372040 8.209102 15.701932
v  -1.021937 8.510985 15.770477
v  -0.985261 7.294624 13.865409
v  -5.513087 7.570633 13.708804
v  -5.641082 8.510986 15.681549
v  -5.602926 7.649077 4.633567
v  -5.672818 7.760881 6.611745
v  -1.134884 7.829263 6.678013
v  -6.464912 7.494121 6.727291
v  -6.334693 7.872036 4.855650
v  -10.952119 8.008739 4.784153
v  4.338718 7.286433 6.660808
v  4.296850 7.897896 4.775354
v  -0.322013 7.897897 4.877919
v  -0.280146 7.286434 6.763372
v  -0.990536 7.449325 4.807819
v  -11.000716 7.343740 6.651233
v  -7.894588 6.895505 11.690312
v  -7.942815 7.063687 13.549883
v  -3.327145 7.224848 13.431406
v  -3.359563 6.770111 11.549878
v  7.274171 7.200204 13.299781
v  7.295215 6.445620 11.591340
v  2.812622 7.158499 11.599811
v  2.741939 7.394732 13.451245
v  1.892830 7.200855 13.372579
v  1.988906 6.496397 11.645411
v  -2.613982 6.858654 11.482357
v  -2.644636 7.315797 13.363330
v  -2.626209 8.615775 2.578363
v  -2.616863 8.180093 4.459661
v  1.989823 7.844335 4.359019
v  7.193503 8.310911 4.414154
v  7.327693 8.461442 2.562122
v  2.709006 8.461443 2.451984
v  2.664146 8.027594 4.333193
v  1.980477 8.280017 2.477721
v  -7.895234 8.500105 2.665070
v  -7.953368 7.840191 4.406284
v  -3.349525 8.221654 4.465766
v  -3.358995 8.630234 2.578397
v  7.289964 6.923120 9.048034
v  7.321615 7.310753 7.161407
v  2.712348 7.026734 7.025725
v  2.680699 6.639101 8.912353
v  1.996735 6.767971 8.948714
v  1.972109 7.181697 7.067531
v  -2.647498 7.181698 7.128005
v  -2.622871 6.767971 9.009188
v  -3.382627 6.914117 9.061394
v  -3.326691 7.175820 7.153775
v  -7.942066 7.038237 6.999568
v  -7.998002 6.776535 8.907186
v  -0.997760 8.518431 2.102342
v  -1.009798 8.636009 0.224886
v  -5.539020 8.899857 0.360627
v  -5.617665 8.518432 2.131963
v  -0.307341 8.410854 0.216414
v  -0.287408 8.170655 2.082083
v  4.299068 8.725728 2.104547
v  4.279138 8.965927 0.238879
v  -6.332840 8.518432 2.106589
v  -6.341454 8.636009 0.229114
v  -10.870914 8.899858 0.356593
v  -10.952792 8.518432 2.127781
v  -6.463178 6.885659 11.175750
v  -6.338918 6.688602 9.379345
v  -10.957199 6.769194 9.282514
v  -10.997914 6.691221 11.159403
v  -5.667419 6.499176 9.430063
v  -5.599345 6.426563 11.306374
v  -1.002095 6.859235 11.156322
v  4.215945 6.923923 11.129649
v  4.305944 6.729064 9.330965
v  -0.314056 6.729065 9.330965
v  -0.314056 6.650393 11.208266
v  -1.070170 6.931848 9.280012
v  -6.069017 8.324855 15.916283
v  -0.425519 6.682333 13.801208
v  -0.810197 7.269969 6.944614
v  7.571684 6.673601 13.641370
v  -5.873338 6.973342 13.803161
v  2.410575 6.593495 11.559354
v  2.199260 6.684709 13.730390
v  -6.118879 6.313205 11.378043
v  4.574342 6.357564 11.324474
v  -8.234076 6.289316 11.615359
v  -11.230468 8.356895 0.105341
v  -6.124837 6.883497 6.755475
v  -8.206927 7.974037 2.326939
v  7.549654 7.717839 4.512423
v  -5.899033 8.356894 0.110033
v  -11.244967 6.973343 13.905581
# 116 vertices

vn 0.000000 0.998045 0.062503
vn 0.000000 0.989568 0.144068
vn 0.000000 0.989568 0.144067
vn 0.000000 0.963754 0.266794
vn 0.000000 0.965093 0.261908
vn 0.000000 0.991669 0.128815
vn 0.000000 0.995276 -0.097084
vn 0.000000 0.920180 -0.391495
vn 0.000000 0.842895 -0.538078
vn -0.035081 0.870058 -0.491700
vn -0.065559 0.900414 -0.430067
vn 0.012902 0.812822 -0.582369
vn -0.056482 0.867889 -0.493537
vn -0.036953 0.851394 -0.523223
vn -0.085638 0.890151 -0.447547
vn 0.043540 0.770276 -0.636222
vn -0.104929 0.903292 -0.415996
vn 0.052341 0.860617 -0.506556
vn 0.069825 0.841402 -0.535880
vn 0.025941 0.886982 -0.461074
vn 0.008275 0.902869 -0.429836
vn 0.002021 0.995741 -0.092175
vn -0.014212 0.998277 -0.056923
vn 0.033609 0.986481 -0.160393
vn 0.009994 0.972096 0.234369
vn 0.025910 0.979537 0.199588
vn -0.020969 0.953417 0.300925
vn 0.006847 0.951250 0.308344
vn 0.049793 0.979509 -0.195148
vn -0.036829 0.941695 0.334446
vn -0.023053 0.991622 -0.127098
vn -0.037082 0.995163 -0.090965
vn 0.005544 0.979804 -0.199882
vn 0.019586 0.971751 -0.235196
vn 0.118815 0.934782 -0.334763
vn 0.143324 0.905955 -0.398377
vn 0.064458 0.979042 -0.193188
vn 0.038374 0.991410 -0.125034
vn 0.070966 0.938094 -0.339033
vn 0.085918 0.924181 -0.372165
vn 0.040269 0.961971 -0.270167
vn 0.025090 0.971502 -0.235701
vn 0.075715 0.971503 0.224610
vn -0.017562 0.993056 0.116323
vn -0.001928 0.996723 0.080873
vn -0.049376 0.980908 0.188101
vn -0.064826 0.972710 0.222783
vn -0.067643 0.945996 0.317043
vn -0.081827 0.932861 0.350819
vn -0.038386 0.968346 0.246642
vn -0.023985 0.977055 0.211634
vn -0.066120 0.977613 0.199755
vn 0.002811 0.976663 0.214760
vn -0.034026 0.990281 0.134857
vn 0.045867 0.994118 0.098115
vn 0.059896 0.996277 0.062009
vn 0.015551 0.984439 0.175039
vn 0.001350 0.977579 0.210564
vn -0.119776 0.984511 0.128033
vn 0.045688 0.994118 0.098198
vn 0.059783 0.996277 0.062118
vn 0.015232 0.984439 0.175067
vn 0.000966 0.977579 0.210567
vn 0.004497 0.997392 -0.072031
vn 0.019604 0.993992 -0.107681
vn -0.027927 0.999598 0.004799
vn -0.042949 0.998254 0.040540
vn -0.092265 0.994855 0.041848
vn -0.014413 0.997319 -0.071745
vn 0.000000 0.994183 -0.107704
vn -0.045253 0.998959 0.005748
vn -0.059497 0.997353 0.041796
vn 0.851827 0.416867 -0.317193
vn 0.009892 0.801114 0.598430
vn 0.038435 -0.151264 -0.987746
vn -0.893870 0.361472 -0.265205
vn -0.019586 0.420921 0.906886
vn 0.871000 0.490216 -0.032362
vn 0.900812 0.401184 -0.166100
vn 0.051748 0.563887 0.824229
vn -0.841732 0.464110 -0.275842
vn 0.023715 -0.169932 -0.985170
vn -0.806702 0.581555 -0.105001
vn 0.008514 0.065390 -0.997823
vn 0.012894 0.574838 0.818166
vn 0.889432 0.438388 -0.129329
vn 0.856532 0.516087 0.002635
vn -0.017297 0.323873 0.945942
vn -0.003114 0.323524 0.946215
vn 0.847266 0.530954 -0.015127
vn -0.866962 0.493830 -0.067146
vn -0.026860 0.137469 -0.990142
vn -0.001039 0.420527 -0.907280
vn -0.846931 0.526495 0.074230
vn 0.859565 0.486009 0.157937
vn -0.017952 0.036122 0.999186
vn -0.888280 0.438536 0.136547
vn -0.031783 0.553680 -0.832123
vn 0.844970 0.524632 0.103864
vn -0.026908 0.147659 0.988672
vn -0.002694 0.420523 -0.907278
vn -0.846794 0.526497 0.075775
vn -0.017739 -0.205671 -0.978460
vn -0.863217 0.447184 -0.234273
# 104 vertex normals

vt 0.500000 0.000000 0.000000
vt 1.000000 0.000000 0.000000
vt 1.000000 0.142857 0.000000
vt 0.500000 0.142857 0.000000
vt 1.000000 0.285714 0.000000
vt 0.500000 0.285714 0.000000
vt 1.000000 0.428572 0.000000
vt 0.500000 0.428572 0.000000
vt 1.000000 0.571429 0.000000
vt 0.500000 0.571429 0.000000
vt 1.000000 0.714286 0.000000
vt 0.500000 0.714286 0.000000
vt 1.000000 0.857143 0.000000
vt 0.500000 0.857143 0.000000
vt 1.000000 1.000000 0.000000
vt 0.500000 1.000000 0.000000
vt 0.415387 0.856546 0.000000
vt 0.416799 0.990499 0.000000
vt 0.286983 0.969174 0.000000
vt 0.011981 0.990117 0.000000
vt 0.006991 0.859735 0.000000
vt 0.136920 0.850683 0.000000
vt 0.285399 0.854911 0.000000
vt 0.143529 0.985392 0.000000
vt 0.147737 0.990283 0.000000
vt 0.146684 0.861156 0.000000
vt 0.276597 0.850541 0.000000
vt 0.280269 0.984255 0.000000
vt 0.278806 0.290845 0.000000
vt 0.280811 0.424928 0.000000
vt 0.150609 0.429419 0.000000
vt 0.288053 0.425510 0.000000
vt 0.284317 0.298649 0.000000
vt 0.416800 0.293802 0.000000
vt 0.008876 0.420228 0.000000
vt 0.010078 0.292430 0.000000
vt 0.142602 0.299382 0.000000
vt 0.141401 0.427180 0.000000
vt 0.146467 0.302656 0.000000
vt 0.418194 0.420355 0.000000
vt 0.492364 0.719793 0.000000
vt 0.493748 0.845836 0.000000
vt 0.361315 0.837806 0.000000
vt 0.362245 0.710275 0.000000
vt 0.088449 0.831159 0.000000
vt 0.087845 0.715360 0.000000
vt 0.216460 0.715934 0.000000
vt 0.218488 0.841426 0.000000
vt 0.227137 0.836902 0.000000
vt 0.224381 0.719834 0.000000
vt 0.356447 0.708782 0.000000
vt 0.357326 0.836276 0.000000
vt 0.357034 0.157173 0.000000
vt 0.356766 0.284688 0.000000
vt 0.224591 0.277867 0.000000
vt 0.089661 0.283029 0.000000
vt 0.085811 0.157497 0.000000
vt 0.218330 0.150032 0.000000
vt 0.219617 0.277542 0.000000
vt 0.224859 0.150351 0.000000
vt 0.492037 0.161593 0.000000
vt 0.493705 0.279614 0.000000
vt 0.361612 0.283646 0.000000
vt 0.361883 0.155719 0.000000
vt 0.086761 0.565150 0.000000
vt 0.085853 0.437273 0.000000
vt 0.218102 0.428077 0.000000
vt 0.219010 0.555954 0.000000
vt 0.223848 0.558153 0.000000
vt 0.224554 0.430645 0.000000
vt 0.357100 0.434744 0.000000
vt 0.356393 0.562252 0.000000
vt 0.362614 0.567202 0.000000
vt 0.361009 0.437902 0.000000
vt 0.493434 0.427450 0.000000
vt 0.495039 0.556750 0.000000
vt 0.146981 0.145059 0.000000
vt 0.147326 0.017804 0.000000
vt 0.277278 0.027004 0.000000
vt 0.279535 0.147067 0.000000
vt 0.141234 0.017726 0.000000
vt 0.140662 0.144182 0.000000
vt 0.009067 0.145705 0.000000
vt 0.009639 0.019249 0.000000
vt 0.284750 0.145345 0.000000
vt 0.284997 0.018089 0.000000
vt 0.414957 0.026729 0.000000
vt 0.417306 0.146782 0.000000
vt 0.287954 0.701734 0.000000
vt 0.284389 0.579973 0.000000
vt 0.416897 0.573409 0.000000
vt 0.418065 0.700626 0.000000
vt 0.279928 0.581796 0.000000
vt 0.277975 0.708974 0.000000
vt 0.146071 0.698803 0.000000
vt 0.012011 0.698593 0.000000
vt 0.009429 0.576677 0.000000
vt 0.141986 0.576677 0.000000
vt 0.141986 0.703922 0.000000
vt 0.148024 0.571625 0.000000
vt 0.284270 0.984034 0.000000
vt 0.138539 0.855009 0.000000
vt 0.148472 0.436739 0.000000
vt 0.086529 0.841897 0.000000
vt 0.279217 0.855128 0.000000
vt 0.219803 0.714888 0.000000
vt 0.225260 0.847327 0.000000
vt 0.285557 0.707189 0.000000
vt 0.009429 0.703922 0.000000
vt 0.494678 0.718305 0.000000
vt 0.417553 0.019525 0.000000
vt 0.285711 0.425201 0.000000
vt 0.493977 0.151687 0.000000
vt 0.087098 0.285007 0.000000
vt 0.279880 0.019811 0.000000
vt 0.417927 0.861376 0.000000
# 116 texture coords

g Plane002
s 1
f 1/1/1 2/2/1 3/3/2 
f 3/3/2 4/4/3 1/1/1 
f 4/4/3 3/3/2 5/5/4 
f 5/5/4 6/6/4 4/4/3 
f 6/6/4 5/5/4 7/7/5 
f 7/7/5 8/8/5 6/6/4 
f 8/8/5 7/7/5 9/9/6 
f 9/9/6 10/10/6 8/8/5 
f 10/10/6 9/9/6 11/11/7 
f 11/11/7 12/12/7 10/10/6 
f 12/12/7 11/11/7 13/13/8 
f 13/13/8 14/14/8 12/12/7 
f 14/14/8 13/13/8 15/15/9 
f 15/15/9 16/16/9 14/14/8 
f 17/17/10 18/18/11 19/19/12 
f 20/20/13 21/21/14 22/22/15 
f 19/19/12 23/23/16 17/17/10 
f 22/22/15 24/24/17 20/20/13 
f 25/25/18 26/26/19 27/27/20 
f 27/27/20 28/28/21 25/25/18 
f 29/29/22 30/30/23 31/31/24 
f 32/32/25 33/33/26 34/34/27 
f 35/35/28 36/36/28 37/37/28 
f 37/37/28 38/38/28 35/35/28 
f 31/31/24 39/39/29 29/29/22 
f 34/34/27 40/40/30 32/32/25 
f 41/41/31 42/42/32 43/43/33 
f 43/43/33 44/44/34 41/41/31 
f 45/45/35 46/46/36 47/47/37 
f 47/47/37 48/48/38 45/45/35 
f 49/49/39 50/50/40 51/51/41 
f 51/51/41 52/52/42 49/49/39 
f 53/53/43 54/54/43 55/55/43 
f 56/56/44 57/57/45 58/58/46 
f 58/58/46 59/59/47 56/56/44 
f 55/55/43 60/60/43 53/53/43 
f 61/61/48 62/62/49 63/63/50 
f 63/63/50 64/64/51 61/61/48 
f 65/65/52 66/66/52 67/67/52 
f 67/67/52 68/68/52 65/65/52 
f 69/69/53 70/70/53 71/71/53 
f 71/71/53 72/72/53 69/69/53 
f 73/73/54 74/74/54 75/75/54 
f 75/75/54 76/76/54 73/73/54 
f 77/77/55 78/78/56 79/79/57 
f 79/79/57 80/80/58 77/77/55 
f 81/81/59 82/82/59 83/83/59 
f 83/83/59 84/84/59 81/81/59 
f 85/85/60 86/86/61 87/87/62 
f 87/87/62 88/88/63 85/85/60 
f 89/89/64 90/90/65 91/91/66 
f 91/91/66 92/92/67 89/89/64 
f 93/93/68 94/94/68 95/95/68 
f 96/96/69 97/97/70 98/98/71 
f 98/98/71 99/99/72 96/96/69 
f 95/95/68 100/100/68 93/93/68 
s off
f 23/23/73 19/19/73 101/101/73 
f 18/18/74 101/101/74 19/19/74 
f 21/21/75 102/102/75 22/22/75 
f 24/24/76 22/22/76 102/102/76 
f 30/30/77 103/103/77 31/31/77 
f 39/39/78 31/31/78 103/103/78 
f 46/46/79 45/45/79 104/104/79 
f 48/48/80 104/104/80 45/45/80 
f 28/28/81 27/27/81 105/105/81 
f 26/26/82 105/105/82 27/27/82 
f 48/48/83 47/47/83 106/106/83 
f 46/46/84 106/106/84 47/47/84 
f 52/52/85 107/107/85 49/49/85 
f 50/50/86 49/49/86 107/107/86 
f 90/90/87 89/89/87 108/108/87 
f 92/92/88 108/108/88 89/89/88 
f 99/99/89 109/109/89 96/96/89 
f 97/97/90 96/96/90 109/109/90 
f 42/42/91 41/41/91 110/110/91 
f 44/44/92 110/110/92 41/41/92 
f 86/86/93 111/111/93 87/87/93 
f 88/88/94 87/87/94 111/111/94 
f 33/33/95 32/32/95 112/112/95 
f 40/40/96 112/112/96 32/32/96 
f 62/62/97 61/61/97 113/113/97 
f 64/64/98 113/113/98 61/61/98 
f 57/57/99 56/56/99 114/114/99 
f 59/59/100 114/114/100 56/56/100 
f 78/78/101 115/115/101 79/79/101 
f 80/80/102 79/79/102 115/115/102 
f 23/23/103 116/116/103 17/17/103 
f 18/18/104 17/17/104 116/116/104 
# 88 faces

