# 3ds Max Wavefront OBJ Exporter v0.97b - (c)2007 guruware
# File Created: 13.08.2017 21:33:49

#
# object Plane001
#

v  -8.000000 -8.000000 0.000000
v  8.000000 -8.000000 0.000000
v  8.000000 8.000000 0.000000
v  -8.000000 8.000000 0.000000
v  -7.842173 4.433416 0.106593
v  -4.245010 4.290508 0.106593
v  -4.102102 7.887672 0.106593
v  7.700000 -4.300000 0.406593
v  4.200000 -4.200000 0.106593
v  4.200000 -7.800000 0.106593
v  4.136422 4.265907 0.106593
v  7.734093 4.136422 0.106593
v  7.863578 7.734092 0.106593
v  7.800000 -7.800000 0.106593
v  -4.400741 -0.375101 0.104845
v  -7.871387 -0.895050 -0.080294
v  -7.244409 -4.437298 0.058914
v  -0.607568 -4.061847 0.334884
v  -4.106358 -4.197765 0.034884
v  -3.770893 -7.683087 0.334884
v  -7.854719 -7.743566 0.106593
v  -4.256435 -7.854718 0.106593
v  -4.145282 -4.256435 0.106593
v  -0.177261 3.726667 0.106593
v  -3.774311 3.580946 0.106593
v  -3.628589 -0.016104 0.106593
v  -7.699265 8.030579 0.106593
v  -7.743566 -4.145281 0.106593
v  -0.279393 -0.170008 0.359908
v  -3.777344 -0.039487 0.047970
v  -3.717868 -3.529800 0.453168
v  3.315049 8.016089 0.147871
v  -0.136337 7.380637 -0.036901
v  0.690574 3.997015 0.429279
v  -3.702926 4.121956 0.106593
v  -0.102926 4.121956 0.106593
v  -0.102926 7.721956 0.106593
v  7.804121 -0.200000 0.154114
v  4.205372 -0.200000 0.059196
v  4.205372 -3.800000 0.059196
v  7.804121 -3.800000 0.154114
v  -3.702926 7.721956 0.106593
v  -3.700719 -3.814848 -0.062798
v  -0.218566 -3.678349 0.165379
v  4.127903 4.599709 0.015111
v  4.265908 7.863578 0.106593
v  3.621767 -0.530373 0.406593
v  0.125340 -0.343289 0.106593
v  0.035737 -3.942174 0.106593
v  3.719424 -4.346128 -0.009840
v  0.134809 -4.303722 -0.339581
v  0.147265 -7.780876 0.169588
v  3.634621 -4.031777 0.106593
v  -0.031540 0.129618 0.106593
v  -0.272104 -7.547170 0.034884
v  -7.763457 0.164183 0.106593
v  -4.164184 0.236544 0.106593
v  -4.236544 3.835816 0.106593
v  7.857583 3.759771 0.106593
v  4.259432 3.644377 0.106593
v  4.374826 0.046227 0.106593
v  -7.835817 3.763456 0.106593
v  4.194303 3.187793 0.462259
v  0.803900 4.056145 0.144241
v  0.135476 0.612234 0.350836
v  3.657822 -7.939614 0.197697
v  7.972978 0.161621 0.106593
v  3.532870 -0.241189 0.069080
v  -4.327695 -0.272601 -0.202007
v  3.385211 8.117919 -0.159876
v  0.606355 3.862428 0.138086
v  0.073207 -7.897208 -0.132044
v  0.019594 0.543947 0.047672
v  4.317176 3.271010 0.165649
v  -3.818324 -3.637631 0.156047
v  -0.177586 -0.080206 0.057302
v  -0.514529 -3.955341 0.034884
v  -3.863932 -7.789594 0.034884
v  7.800000 -4.200000 0.106593
v  3.724225 -0.432892 0.106593
v  -8.000000 -8.000000 16.000000
v  -8.000000 8.000000 16.000000
v  8.000000 8.000000 16.000000
v  8.000000 -8.000000 16.000000
# 84 vertices

vn 0.000000 0.000000 1.000000
vn -0.042779 -0.042779 0.998168
vn -0.085401 0.000000 0.996347
vn 0.000000 -0.085401 0.996347
vn -0.008127 -0.005617 0.999951
vn -0.057582 0.029026 0.997919
vn -0.000000 0.000000 1.000000
vn -0.088146 0.077000 0.993127
vn 0.000000 -0.000000 1.000000
vn -0.002251 0.030049 0.999546
vn -0.084049 0.113496 0.989977
vn 0.023429 0.054595 0.998234
vn -0.074763 0.118151 0.990177
vn -0.026366 0.000000 0.999652
vn 0.041357 -0.040239 0.998334
vn 0.079577 -0.053812 0.995375
vn 0.121299 -0.009711 0.992569
vn -0.043830 -0.041701 0.998168
vn -0.085375 0.002126 0.996347
vn -0.047256 0.101059 0.993757
vn -0.088957 0.144001 0.985571
vn -0.002126 -0.085375 0.996347
vn 0.088146 -0.077000 0.993127
vn -0.011652 -0.024883 0.999622
vn -0.074308 0.074080 0.994480
vn -0.005382 0.057749 0.998317
vn 0.051164 -0.123503 0.991024
vn 0.942250 0.177929 0.283736
vn -0.156817 0.947364 0.279124
vn -0.188308 0.944394 0.269556
vn 0.935418 0.211555 0.283263
vn -0.920600 -0.177026 0.348076
vn 0.203125 -0.909864 0.361783
vn -0.973327 0.029823 0.227476
vn -0.044931 -0.928318 0.369062
vn -0.929514 0.199033 0.310467
vn -0.210368 -0.933414 0.290660
vn 0.202998 0.917677 0.341556
vn 0.922144 -0.214770 0.321751
vn -0.011511 -0.938692 0.344565
vn -0.949332 0.020232 0.313624
vn 0.010087 0.957697 0.287603
vn 0.947908 -0.001228 0.318543
vn 0.946530 0.063885 0.316228
vn -0.063885 0.946531 0.316226
vn 0.063884 -0.946530 0.316227
vn -0.946530 -0.063885 0.316227
vn 0.000000 0.948683 0.316228
vn 0.948683 0.000000 0.316227
vn 0.023613 0.948389 0.316228
vn 0.948389 -0.023613 0.316228
vn 0.000000 0.000000 -1.000000
# 52 vertex normals

vt 0.500000 0.000000 0.000000
vt 1.000000 0.000000 0.000000
vt 1.000000 1.000000 0.000000
vt 0.500000 1.000000 0.000000
vt 0.004609 0.770335 0.000000
vt 0.115109 0.761619 0.000000
vt 0.119499 0.981003 0.000000
vt 0.482045 0.237701 0.000000
vt 0.374529 0.243800 0.000000
vt 0.374529 0.024243 0.000000
vt 0.372576 0.760119 0.000000
vt 0.483092 0.752222 0.000000
vt 0.487070 0.971636 0.000000
vt 0.485117 0.024243 0.000000
vt 0.110325 0.477073 0.000000
vt 0.003712 0.445362 0.000000
vt 0.022972 0.229328 0.000000
vt 0.226847 0.252226 0.000000
vt 0.119369 0.243936 0.000000
vt 0.129674 0.031374 0.000000
vt 0.004224 0.027685 0.000000
vt 0.114758 0.020906 0.000000
vt 0.118173 0.240358 0.000000
vt 0.240065 0.727232 0.000000
vt 0.129569 0.718344 0.000000
vt 0.134045 0.498967 0.000000
vt 0.008999 0.989718 0.000000
vt 0.007638 0.247137 0.000000
vt 0.236928 0.489581 0.000000
vt 0.129475 0.497541 0.000000
vt 0.131302 0.284674 0.000000
vt 0.347345 0.988835 0.000000
vt 0.241323 0.950080 0.000000
vt 0.266724 0.743720 0.000000
vt 0.131761 0.751339 0.000000
vt 0.242349 0.751339 0.000000
vt 0.242349 0.970896 0.000000
vt 0.485243 0.487752 0.000000
vt 0.374694 0.487752 0.000000
vt 0.374694 0.268195 0.000000
vt 0.485243 0.268195 0.000000
vt 0.131761 0.970896 0.000000
vt 0.131829 0.267290 0.000000
vt 0.238797 0.275614 0.000000
vt 0.372315 0.780477 0.000000
vt 0.376554 0.979533 0.000000
vt 0.356767 0.467603 0.000000
vt 0.249361 0.479013 0.000000
vt 0.246608 0.259524 0.000000
vt 0.359767 0.234888 0.000000
vt 0.249652 0.237474 0.000000
vt 0.250034 0.025410 0.000000
vt 0.357162 0.254059 0.000000
vt 0.244542 0.507855 0.000000
vt 0.237152 0.039663 0.000000
vt 0.007027 0.509963 0.000000
vt 0.117592 0.514376 0.000000
vt 0.115369 0.733888 0.000000
vt 0.486886 0.729250 0.000000
vt 0.376355 0.722213 0.000000
vt 0.379900 0.502769 0.000000
vt 0.004804 0.729475 0.000000
vt 0.374354 0.694367 0.000000
vt 0.270205 0.747326 0.000000
vt 0.249672 0.537288 0.000000
vt 0.357874 0.015728 0.000000
vt 0.490430 0.509807 0.000000
vt 0.354036 0.485240 0.000000
vt 0.112569 0.483324 0.000000
vt 0.349500 0.995045 0.000000
vt 0.264137 0.735511 0.000000
vt 0.247759 0.018315 0.000000
vt 0.246113 0.533124 0.000000
vt 0.378129 0.699442 0.000000
vt 0.128217 0.278098 0.000000
vt 0.240055 0.495058 0.000000
vt 0.229705 0.258721 0.000000
vt 0.126816 0.024878 0.000000
vt 0.485117 0.243800 0.000000
vt 0.359914 0.473548 0.000000
# 80 texture coords

g Plane001
s 1
f 1/1/1 2/2/1 3/3/1 
f 3/3/1 4/4/1 1/1/1 
f 5/5/1 6/6/1 7/7/1 
f 8/8/2 9/9/3 10/10/2 
f 11/11/1 12/12/1 13/13/1 
f 10/10/2 14/14/4 8/8/2 
f 15/15/5 16/16/6 17/17/5 
f 18/18/7 19/19/8 20/20/9 
f 21/21/1 22/22/1 23/23/1 
f 24/24/1 25/25/1 26/26/1 
f 7/7/1 27/27/1 5/5/1 
f 23/23/1 28/28/1 21/21/1 
f 29/29/10 30/30/11 31/31/10 
f 32/32/12 33/33/13 34/34/12 
f 35/35/1 36/36/1 37/37/1 
f 38/38/14 39/39/14 40/40/14 
f 40/40/14 41/41/14 38/38/14 
f 37/37/1 42/42/1 35/35/1 
f 17/17/5 43/43/15 15/15/5 
f 31/31/10 44/44/16 29/29/10 
f 34/34/12 45/45/17 32/32/12 
f 13/13/1 46/46/1 11/11/1 
f 47/47/18 48/48/19 49/49/18 
f 50/50/20 51/51/21 52/52/20 
f 49/49/18 53/53/22 47/47/18 
f 26/26/1 54/54/1 24/24/1 
f 20/20/9 55/55/23 18/18/7 
f 56/56/1 57/57/1 58/58/1 
f 59/59/1 60/60/1 61/61/1 
f 58/58/1 62/62/1 56/56/1 
f 63/63/24 64/64/25 65/65/24 
f 52/52/20 66/66/26 50/50/20 
f 61/61/1 67/67/1 59/59/1 
f 65/65/24 68/68/27 63/63/24 
s off
f 43/43/28 69/69/28 15/15/28 
f 16/16/29 15/15/29 69/69/29 
f 33/33/30 32/32/30 70/70/30 
f 45/45/31 70/70/31 32/32/31 
f 33/33/32 71/71/32 34/34/32 
f 45/45/33 34/34/33 71/71/33 
f 51/51/34 72/72/34 52/52/34 
f 66/66/35 52/52/35 72/72/35 
f 64/64/36 73/73/36 65/65/36 
f 68/68/37 65/65/37 73/73/37 
f 64/64/38 63/63/38 74/74/38 
f 68/68/39 74/74/39 63/63/39 
f 44/44/40 31/31/40 75/75/40 
f 30/30/41 75/75/41 31/31/41 
f 30/30/42 29/29/42 76/76/42 
f 44/44/43 76/76/43 29/29/43 
f 55/55/44 77/77/44 18/18/44 
f 19/19/45 18/18/45 77/77/45 
f 55/55/46 20/20/46 78/78/46 
f 19/19/47 78/78/47 20/20/47 
f 9/9/48 8/8/48 79/79/48 
f 14/14/49 79/79/49 8/8/49 
f 48/48/50 47/47/50 80/80/50 
f 53/53/51 80/80/51 47/47/51 
s 1
f 81/1/52 82/4/52 83/3/52 
f 83/3/52 84/2/52 81/1/52 
# 60 faces

