####
#
#	OBJ File Generated by LightWave3D
#	LightWave3D OBJ Export v2.3
#
####
o Point.obj
mtllib Point.mtl
g default
v -0.5 0 0.5
v 0.5 0 0.5
v 0.5 0 -0.5
v -0.5 0 -0.5
v -0.5 -0.5 -0
v -0.5 0.5 -0
v 0.5 0.5 -0
v 0.5 -0.5 -0
v 0 -0.5 0.5
v 0 -0.5 -0.5
v 0 0.5 -0.5
v 0 0.5 0.5
vn 0 1 -0
vn 0 1 -0
vn 0 1 -0
vn 0 1 -0
vn 0 0 -1
vn 0 0 -1
vn 0 0 -1
vn 0 0 -1
vn 1 0 -0
vn 1 0 -0
vn 1 0 -0
vn 1 0 -0
g group_Default
usemtl Default
s off
f 2//1 3//2 4//3 1//4
f 6//5 7//6 8//7 5//8
f 10//9 11//10 12//11 9//12
