####
#
#	OBJ File Generated by LightWave3D
#	LightWave3D OBJ Export v2.3
#
####
o RotateYArrow.obj
mtllib RotateYArrow.mtl
g default
v -0.104 -6.80904e-017 -0.104
v -0.104 -1.91045e-017 0.104
v 0.104 6.80904e-017 0.104
v 0.104 1.91045e-017 -0.104
v -0.104 5 -0.104
v -0.104 5 0.104
v 0.104 5 0.104
v 0.104 5 -0.104
v -1.06281e-015 5 0.39
v 0.33775 5 0.195
v 0.33775 5 -0.195
v -1.06281e-015 5 -0.39
v -0.33775 5 -0.195
v -0.33775 5 0.195
v -1.54043e-015 7.6 -1.11022e-016
v 0.104 5.53541e-017 -0.104
v 0.104 6.36816e-018 0.104
v -0.104 -5.53541e-017 0.104
v -0.104 -6.36816e-018 -0.104
v 0.104 -5 -0.104
v 0.104 -5 0.104
v -0.104 -5 0.104
v -0.104 -5 -0.104
v 4.50491e-016 -5 0.39
v -0.33775 -5 0.195
v -0.33775 -5 -0.195
v 4.50491e-016 -5 -0.39
v 0.33775 -5 -0.195
v 0.33775 -5 0.195
v 6.09695e-016 -7.6 -1.11022e-016
vt 0.4065 0.658463
vt 0.469306 0.1782
vt 0.469306 0.658463
vt 0.49725 0.658463
vt 0.49725 0.9082
vt 0.525194 0.1782
vt 0.525194 0.658463
vt 0.588 0.658463
vn 0.57735 -0.57735 -0.57735
vn 0.57735 -0.57735 0.57735
vn -0.57735 -0.57735 0.57735
vn -0.57735 -0.57735 -0.57735
vn -0.57735 -0.57735 0.57735
vn -0.57735 0.57735 0.57735
vn -0.57735 0.57735 -0.57735
vn -0.57735 -0.57735 -0.57735
vn 0.57735 -0.57735 0.57735
vn 0.57735 0.57735 0.57735
vn -0.57735 0.57735 0.57735
vn -0.57735 -0.57735 0.57735
vn 0.57735 0.57735 -0.57735
vn 0.57735 0.57735 0.57735
vn 0.57735 -0.57735 0.57735
vn 0.57735 -0.57735 -0.57735
vn -0.57735 0.57735 -0.57735
vn 0.57735 0.57735 -0.57735
vn 0.57735 -0.57735 -0.57735
vn -0.57735 -0.57735 -0.57735
vn -0.57735 0.57735 0.57735
vn 0.57735 0.57735 0.57735
vn 0.57735 0.57735 -0.57735
vn -0.57735 0.57735 -0.57735
vn -0.794954 -0.396732 0.458967
vn -0.794954 -0.396732 -0.458967
vn 0 -0.396732 -0.917934
vn 0.794954 -0.396732 -0.458967
vn 0.794954 -0.396732 0.458967
vn 0 -0.396732 0.917934
vn 0.794954 -0.396732 0.458967
vn 0 1 -0
vn 0 -0.396732 0.917934
vn 0.794954 -0.396732 -0.458967
vn 0 1 -0
vn 0.794954 -0.396732 0.458967
vn 0 1 -0
vn 0.794954 -0.396732 -0.458967
vn 0 -0.396732 -0.917934
vn 0 1 -0
vn 0 -0.396732 -0.917934
vn -0.794954 -0.396732 -0.458967
vn -0.794954 -0.396732 0.458967
vn 0 1 -0
vn -0.794954 -0.396732 -0.458967
vn 0 -0.396732 0.917934
vn 0 1 -0
vn -0.794954 -0.396732 0.458967
vn -0.57735 0.57735 -0.57735
vn -0.57735 0.57735 0.57735
vn 0.57735 0.57735 0.57735
vn 0.57735 0.57735 -0.57735
vn 0.57735 0.57735 0.57735
vn 0.57735 -0.57735 0.57735
vn 0.57735 -0.57735 -0.57735
vn 0.57735 0.57735 -0.57735
vn -0.57735 0.57735 0.57735
vn -0.57735 -0.57735 0.57735
vn 0.57735 -0.57735 0.57735
vn 0.57735 0.57735 0.57735
vn -0.57735 -0.57735 -0.57735
vn -0.57735 -0.57735 0.57735
vn -0.57735 0.57735 0.57735
vn -0.57735 0.57735 -0.57735
vn 0.57735 -0.57735 -0.57735
vn -0.57735 -0.57735 -0.57735
vn -0.57735 0.57735 -0.57735
vn 0.57735 0.57735 -0.57735
vn 0.57735 -0.57735 0.57735
vn -0.57735 -0.57735 0.57735
vn -0.57735 -0.57735 -0.57735
vn 0.57735 -0.57735 -0.57735
vn 0.794954 0.396732 0.458967
vn 0.794954 0.396732 -0.458967
vn 0 0.396732 -0.917934
vn -0.794954 0.396732 -0.458967
vn -0.794954 0.396732 0.458967
vn 0 0.396732 0.917934
vn -0.794954 0.396732 0.458967
vn 0 -1 -0
vn 0 0.396732 0.917934
vn -0.794954 0.396732 -0.458967
vn 0 -1 -0
vn -0.794954 0.396732 0.458967
vn 0 -1 -0
vn -0.794954 0.396732 -0.458967
vn 0 0.396732 -0.917934
vn 0 -1 -0
vn 0 0.396732 -0.917934
vn 0.794954 0.396732 -0.458967
vn 0.794954 0.396732 0.458967
vn 0 -1 -0
vn 0.794954 0.396732 -0.458967
vn 0 0.396732 0.917934
vn 0 -1 -0
vn 0.794954 0.396732 0.458967
g group_Default
usemtl Default
s off
f 4/6/1 3/6/2 2/2/3 1/2/4
f 2/2/5 6/3/6 5/3/7 1/2/8
f 3/6/9 7/7/10 6/3/11 2/2/12
f 8/7/13 7/7/14 3/6/15 4/6/16
f 5/3/17 8/7/18 4/6/19 1/2/20
f 6/3/21 7/7/22 8/7/23 5/3/24
f 14/1/25 13/1/26 12/4/27 11/8/28 10/8/29 9/4/30
f 10/8/31 15/5/32 9/4/33
f 11/8/34 15/5/35 10/8/36
f 15/5/37 11/8/38 12/4/39
f 15/5/40 12/4/41 13/1/42
f 14/1/43 15/5/44 13/1/45
f 9/4/46 15/5/47 14/1/48
f 19/6/49 18/6/50 17/2/51 16/2/52
f 17/2/53 21/3/54 20/3/55 16/2/56
f 18/6/57 22/7/58 21/3/59 17/2/60
f 23/7/61 22/7/62 18/6/63 19/6/64
f 20/3/65 23/7/66 19/6/67 16/2/68
f 21/3/69 22/7/70 23/7/71 20/3/72
f 29/1/73 28/1/74 27/4/75 26/8/76 25/8/77 24/4/78
f 25/8/79 30/5/80 24/4/81
f 26/8/82 30/5/83 25/8/84
f 30/5/85 26/8/86 27/4/87
f 30/5/88 27/4/89 28/1/90
f 29/1/91 30/5/92 28/1/93
f 24/4/94 30/5/95 29/1/96
