####
#
#	OBJ File Generated by LightWave3D
#	LightWave3D OBJ Export v2.3
#
####
o UnitDimensionArrows.obj
mtllib UnitDimensionArrows.mtl
g default
v -4.89859e-017 0.4 -0.4
v -3.75445e-025 0.4 0.4
v 4.89859e-017 -0.4 0.4
v 3.75445e-025 -0.4 -0.4
v 5 0.4 -0.4
v 5 0.4 0.4
v 5 -0.4 0.4
v 5 -0.4 -0.4
v 5 5.55112e-016 1.5
v 5 -1.29904 0.75
v 5 -1.29904 -0.75
v 5 5.55112e-016 -1.5
v 5 1.29904 -0.75
v 5 1.29904 0.75
v 7.6 5.55112e-016 -4.65366e-016
v -0.4 0 0.4
v 0.4 0 0.4
v 0.4 0 -0.4
v -0.4 0 -0.4
v -0.4 5 0.4
v 0.4 5 0.4
v 0.4 5 -0.4
v -0.4 5 -0.4
v 1.5 5 -0
v 0.75 5 -1.29904
v -0.75 5 -1.29904
v -1.5 5 -0
v -0.75 5 1.29904
v 0.75 5 1.29904
v 0 7.6 -0
v -0.4 0.4 2.44929e-017
v 0.4 0.4 2.44929e-017
v 0.4 -0.4 -2.44929e-017
v -0.4 -0.4 -2.44929e-017
v -0.4 0.4 -5
v 0.4 0.4 -5
v 0.4 -0.4 -5
v -0.4 -0.4 -5
v 1.5 3.06162e-016 -5
v 0.75 -1.29904 -5
v -0.75 -1.29904 -5
v -1.5 3.06162e-016 -5
v -0.75 1.29904 -5
v 0.75 1.29904 -5
v 0 4.65366e-016 -7.6
vt 0.096896 0.658444
vt 0.141934 0.172128
vt 0.141934 0.658444
vt 0.161972 0.658444
vt 0.161972 0.911328
vt 0.18201 0.172128
vt 0.18201 0.658444
vt 0.227048 0.658444
vt 0.4065 0.658463
vt 0.469306 0.1782
vt 0.469306 0.658463
vt 0.49725 0.658463
vt 0.49725 0.9082
vt 0.525194 0.1782
vt 0.525194 0.658463
vt 0.588 0.658463
vt 0.7272 0.655684
vt 0.793432 0.182
vt 0.793432 0.655684
vt 0.8229 0.655684
vt 0.8229 0.902
vt 0.852368 0.182
vt 0.852368 0.655684
vt 0.9186 0.655684
vn -0.57735 -0.57735 -0.57735
vn -0.57735 -0.57735 0.57735
vn -0.57735 0.57735 0.57735
vn -0.57735 0.57735 -0.57735
vn -0.57735 0.57735 0.57735
vn 0.57735 0.57735 0.57735
vn 0.57735 0.57735 -0.57735
vn -0.57735 0.57735 -0.57735
vn -0.57735 -0.57735 0.57735
vn 0.57735 -0.57735 0.57735
vn 0.57735 0.57735 0.57735
vn -0.57735 0.57735 0.57735
vn 0.57735 -0.57735 -0.57735
vn 0.57735 -0.57735 0.57735
vn -0.57735 -0.57735 0.57735
vn -0.57735 -0.57735 -0.57735
vn 0.57735 0.57735 -0.57735
vn 0.57735 -0.57735 -0.57735
vn -0.57735 -0.57735 -0.57735
vn -0.57735 0.57735 -0.57735
vn 0.57735 0.57735 0.57735
vn 0.57735 -0.57735 0.57735
vn 0.57735 -0.57735 -0.57735
vn 0.57735 0.57735 -0.57735
vn -0.0683182 0.864002 0.498832
vn -0.0683182 0.864002 -0.498832
vn -0.0683184 0 -0.997663
vn -0.0683182 -0.864002 -0.498832
vn -0.0683182 -0.864002 0.498832
vn -0.0683184 0 0.997663
vn -0.0683182 -0.864002 0.498832
vn 1 -2.22265e-008 -0
vn -0.0683184 0 0.997663
vn -0.0683182 -0.864002 -0.498832
vn 1 -2.22265e-008 -0
vn -0.0683182 -0.864002 0.498832
vn 1 -2.22265e-008 -0
vn -0.0683182 -0.864002 -0.498832
vn -0.0683184 0 -0.997663
vn 1 -2.22265e-008 -0
vn -0.0683184 0 -0.997663
vn -0.0683182 0.864002 -0.498832
vn -0.0683182 0.864002 0.498832
vn 1 -2.22265e-008 -0
vn -0.0683182 0.864002 -0.498832
vn -0.0683184 0 0.997663
vn 1 -2.22265e-008 -0
vn -0.0683182 0.864002 0.498832
vn -0.57735 -0.57735 -0.57735
vn 0.57735 -0.57735 -0.57735
vn 0.57735 -0.57735 0.57735
vn -0.57735 -0.57735 0.57735
vn 0.57735 -0.57735 0.57735
vn 0.57735 0.57735 0.57735
vn -0.57735 0.57735 0.57735
vn -0.57735 -0.57735 0.57735
vn 0.57735 -0.57735 -0.57735
vn 0.57735 0.57735 -0.57735
vn 0.57735 0.57735 0.57735
vn 0.57735 -0.57735 0.57735
vn -0.57735 0.57735 -0.57735
vn 0.57735 0.57735 -0.57735
vn 0.57735 -0.57735 -0.57735
vn -0.57735 -0.57735 -0.57735
vn -0.57735 0.57735 0.57735
vn -0.57735 0.57735 -0.57735
vn -0.57735 -0.57735 -0.57735
vn -0.57735 -0.57735 0.57735
vn 0.57735 0.57735 0.57735
vn 0.57735 0.57735 -0.57735
vn -0.57735 0.57735 -0.57735
vn -0.57735 0.57735 0.57735
vn 0.498832 -0.0683182 0.864002
vn -0.498832 -0.0683182 0.864002
vn -0.997663 -0.0683184 -0
vn -0.498832 -0.0683182 -0.864002
vn 0.498832 -0.0683182 -0.864002
vn 0.997663 -0.0683184 -0
vn 0.498832 -0.0683182 -0.864002
vn 0 1 -2.22265e-008
vn 0.997663 -0.0683184 -0
vn -0.498832 -0.0683182 -0.864002
vn 0 1 -2.22265e-008
vn 0.498832 -0.0683182 -0.864002
vn 0 1 -2.22265e-008
vn -0.498832 -0.0683182 -0.864002
vn -0.997663 -0.0683184 -0
vn 0 1 -2.22265e-008
vn -0.997663 -0.0683184 -0
vn -0.498832 -0.0683182 0.864002
vn 0.498832 -0.0683182 0.864002
vn 0 1 -2.22265e-008
vn -0.498832 -0.0683182 0.864002
vn 0.997663 -0.0683184 -0
vn 0 1 -2.22265e-008
vn 0.498832 -0.0683182 0.864002
vn -0.57735 -0.57735 0.57735
vn 0.57735 -0.57735 0.57735
vn 0.57735 0.57735 0.57735
vn -0.57735 0.57735 0.57735
vn 0.57735 0.57735 0.57735
vn 0.57735 0.57735 -0.57735
vn -0.57735 0.57735 -0.57735
vn -0.57735 0.57735 0.57735
vn 0.57735 -0.57735 0.57735
vn 0.57735 -0.57735 -0.57735
vn 0.57735 0.57735 -0.57735
vn 0.57735 0.57735 0.57735
vn -0.57735 -0.57735 -0.57735
vn 0.57735 -0.57735 -0.57735
vn 0.57735 -0.57735 0.57735
vn -0.57735 -0.57735 0.57735
vn -0.57735 0.57735 -0.57735
vn -0.57735 -0.57735 -0.57735
vn -0.57735 -0.57735 0.57735
vn -0.57735 0.57735 0.57735
vn 0.57735 0.57735 -0.57735
vn 0.57735 -0.57735 -0.57735
vn -0.57735 -0.57735 -0.57735
vn -0.57735 0.57735 -0.57735
vn 0.498832 0.864002 0.0683182
vn -0.498832 0.864002 0.0683182
vn -0.997663 0 0.0683184
vn -0.498832 -0.864002 0.0683182
vn 0.498832 -0.864002 0.0683182
vn 0.997663 0 0.0683184
vn 0.498832 -0.864002 0.0683182
vn 0 -2.22265e-008 -1
vn 0.997663 0 0.0683184
vn -0.498832 -0.864002 0.0683182
vn 0 -2.22265e-008 -1
vn 0.498832 -0.864002 0.0683182
vn 0 -2.22265e-008 -1
vn -0.498832 -0.864002 0.0683182
vn -0.997663 0 0.0683184
vn 0 -2.22265e-008 -1
vn -0.997663 0 0.0683184
vn -0.498832 0.864002 0.0683182
vn 0.498832 0.864002 0.0683182
vn 0 -2.22265e-008 -1
vn -0.498832 0.864002 0.0683182
vn 0.997663 0 0.0683184
vn 0 -2.22265e-008 -1
vn 0.498832 0.864002 0.0683182
g group_Default
usemtl Default
s off
f 4/14/1 3/14/2 2/10/3 1/10/4
f 2/10/5 6/11/6 5/11/7 1/10/8
f 3/14/9 7/15/10 6/11/11 2/10/12
f 8/15/13 7/15/14 3/14/15 4/14/16
f 5/11/17 8/15/18 4/14/19 1/10/20
f 6/11/21 7/15/22 8/15/23 5/11/24
f 14/9/25 13/9/26 12/12/27 11/16/28 10/16/29 9/12/30
f 10/16/31 15/13/32 9/12/33
f 11/16/34 15/13/35 10/16/36
f 15/13/37 11/16/38 12/12/39
f 15/13/40 12/12/41 13/9/42
f 14/9/43 15/13/44 13/9/45
f 9/12/46 15/13/47 14/9/48
f 19/6/49 18/6/50 17/2/51 16/2/52
f 17/2/53 21/3/54 20/3/55 16/2/56
f 18/6/57 22/7/58 21/3/59 17/2/60
f 23/7/61 22/7/62 18/6/63 19/6/64
f 20/3/65 23/7/66 19/6/67 16/2/68
f 21/3/69 22/7/70 23/7/71 20/3/72
f 29/1/73 28/1/74 27/4/75 26/8/76 25/8/77 24/4/78
f 25/8/79 30/5/80 24/4/81
f 26/8/82 30/5/83 25/8/84
f 30/5/85 26/8/86 27/4/87
f 30/5/88 27/4/89 28/1/90
f 29/1/91 30/5/92 28/1/93
f 24/4/94 30/5/95 29/1/96
f 34/22/97 33/22/98 32/18/99 31/18/100
f 32/18/101 36/19/102 35/19/103 31/18/104
f 33/22/105 37/23/106 36/19/107 32/18/108
f 38/23/109 37/23/110 33/22/111 34/22/112
f 35/19/113 38/23/114 34/22/115 31/18/116
f 36/19/117 37/23/118 38/23/119 35/19/120
f 44/17/121 43/17/122 42/20/123 41/24/124 40/24/125 39/20/126
f 40/24/127 45/21/128 39/20/129
f 41/24/130 45/21/131 40/24/132
f 45/21/133 41/24/134 42/20/135
f 45/21/136 42/20/137 43/17/138
f 44/17/139 45/21/140 43/17/141
f 39/20/142 45/21/143 44/17/144
